<svg id="Capa_1" enable-background="new 0 0 512 512" height="512" viewBox="0 0 512 512" width="512" xmlns="http://www.w3.org/2000/svg"><g><path d="m495.64 281.734-36.69-20.78c-4.05-2.29-7.68-5.19-10.78-8.58h-23.316l-104.654-96.5v-18.13h-296.72c-8.83 0-15.98 7.15-15.98 15.97v138.02l13.794 30h466.794l15.612-30c-1.29-4.17-4.14-7.78-8.06-10z" fill="#f6f1f1"/><path d="m495.64 281.734-36.69-20.78c-4.05-2.29-7.68-5.19-10.78-8.58h-23.316l-1.764-1.626c.459.553.93 1.096 1.415 1.626 3.1 3.39 6.73 6.29 10.78 8.58l36.69 20.78c3.92 2.22 6.77 5.83 8.06 10 .53 1.66.8 3.41.8 5.2v24.8h7.253l15.612-30c-1.29-4.17-4.14-7.78-8.06-10z" fill="#eadfda"/><path d="m504.5 296.934v41.58c0 9.65-7.82 17.47-17.46 17.47h-463.56c-8.83 0-15.98-7.16-15.98-15.98v-48.27h496.2c.53 1.66.8 3.41.8 5.2z" fill="#da4a54"/><path d="m503.7 291.734h-23.664c.53 1.66.8 3.41.8 5.2v41.58c0 9.65-7.82 17.47-17.46 17.47h23.664c9.64 0 17.46-7.82 17.46-17.47v-41.58c0-1.79-.27-3.54-.8-5.2z" fill="#d82e3d"/><g><path d="m269.532 363.48c-4.143 0-7.5-3.357-7.5-7.5v-218.239c0-4.142 3.357-7.5 7.5-7.5s7.5 3.358 7.5 7.5v218.239c0 4.142-3.357 7.5-7.5 7.5z" fill="#eadfda"/></g><path d="m448.17 252.374h-113.47c-8.01 0-14.5-6.5-14.5-14.51v-100.12h64.37c11.93 0 22.56 7.55 26.48 18.83l27.99 80.5c1.99 5.71 5.11 10.91 9.13 15.3z" fill="#b1e4f9"/><path d="m439.04 237.074-27.99-80.5c-3.92-11.28-14.55-18.83-26.48-18.83h-23.664c11.93 0 22.56 7.55 26.48 18.83l27.99 80.5c1.99 5.71 5.11 10.91 9.13 15.3h23.664c-4.02-4.39-7.14-9.59-9.13-15.3z" fill="#75cef9"/><path d="m364.29 252.374h-29.59c-8.01 0-14.5-6.5-14.5-14.51v-57.68h12.99c10.66 0 19.78 7.66 21.62 18.16z" fill="#544f57"/><path d="m404.109 223.532c-2.93-2.929-7.678-2.929-10.607 0s-2.929 7.678 0 10.606l18.235 18.236h21.214z" fill="#544f57"/><g><path d="m392.195 242.945c-1.92 0-3.839-.732-5.304-2.197-2.929-2.929-2.929-7.678.001-10.606l13.221-13.22c2.929-2.929 7.678-2.929 10.606 0s2.929 7.678-.001 10.606l-13.221 13.22c-1.463 1.465-3.383 2.197-5.302 2.197z" fill="#454045"/></g><g><path d="m504.5 329.658h-20.794c-4.143 0-7.5-3.357-7.5-7.5s3.357-7.5 7.5-7.5h20.794c4.143 0 7.5 3.357 7.5 7.5s-3.357 7.5-7.5 7.5z" fill="#f6e266"/></g><g><path d="m21.294 329.658h-13.794c-4.143 0-7.5-3.357-7.5-7.5s3.357-7.5 7.5-7.5h13.794c4.143 0 7.5 3.357 7.5 7.5s-3.357 7.5-7.5 7.5z" fill="#d82e3d"/></g><circle cx="104.726" cy="365.512" fill="#544f57" r="47.354"/><path d="m104.726 318.157c-2.854 0-5.643.267-8.358.75 22.164 3.95 38.996 23.305 38.996 46.604s-16.832 42.654-38.996 46.604c2.715.484 5.505.75 8.358.75 26.153 0 47.354-21.201 47.354-47.354.001-26.152-21.201-47.354-47.354-47.354z" fill="#454045"/><circle cx="104.726" cy="365.512" fill="#f6f1f1" r="16.716"/><path d="m104.726 348.795c-2.51 0-4.882.569-7.019 1.56 5.721 2.654 9.698 8.434 9.698 15.156s-3.977 12.502-9.698 15.156c2.136.991 4.508 1.56 7.019 1.56 9.232 0 16.716-7.484 16.716-16.716s-7.484-16.716-16.716-16.716z" fill="#eadfda"/><circle cx="384.185" cy="365.512" fill="#544f57" r="47.354"/><path d="m384.185 318.157c-2.854 0-5.643.267-8.358.75 22.164 3.95 38.996 23.305 38.996 46.604s-16.832 42.654-38.996 46.604c2.715.484 5.505.75 8.358.75 26.153 0 47.354-21.201 47.354-47.354.001-26.152-21.2-47.354-47.354-47.354z" fill="#454045"/><circle cx="384.185" cy="365.512" fill="#f6f1f1" r="16.716"/><path d="m384.185 348.795c-2.51 0-4.882.569-7.019 1.56 5.721 2.654 9.698 8.434 9.698 15.156s-3.977 12.502-9.698 15.156c2.136.991 4.508 1.56 7.019 1.56 9.232 0 16.716-7.484 16.716-16.716s-7.483-16.716-16.716-16.716z" fill="#eadfda"/><path d="m211.15 196.873h-16.464c-.572 0-1.037-.464-1.037-1.037v-16.464c0-3.966-3.215-7.18-7.18-7.18h-17.46c-3.966 0-7.18 3.215-7.18 7.18v16.464c0 .572-.464 1.037-1.037 1.037h-16.464c-3.966 0-7.18 3.215-7.18 7.18v17.46c0 3.966 3.215 7.18 7.18 7.18h16.464c.572 0 1.037.464 1.037 1.037v16.464c0 3.966 3.215 7.18 7.18 7.18h17.46c3.966 0 7.18-3.215 7.18-7.18v-16.464c0-.572.464-1.037 1.037-1.037h16.464c3.966 0 7.18-3.215 7.18-7.18v-17.46c0-3.965-3.215-7.18-7.18-7.18z" fill="#da4a54"/><g fill="#d82e3d"><path d="m181.231 179.372v16.464c0 .573.464 1.037 1.036 1.037h12.418c-.573 0-1.036-.464-1.036-1.037v-16.464c0-3.966-3.215-7.18-7.18-7.18h-12.418c3.965 0 7.18 3.215 7.18 7.18z"/><path d="m211.15 196.873h-12.418c3.966 0 7.181 3.215 7.181 7.18v17.46c0 3.966-3.215 7.18-7.181 7.18h12.418c3.966 0 7.18-3.215 7.18-7.18v-17.46c0-3.965-3.215-7.18-7.18-7.18z"/><path d="m181.231 229.73v16.464c0 3.966-3.215 7.18-7.181 7.18h12.418c3.966 0 7.181-3.215 7.181-7.18v-16.464c0-.573.464-1.037 1.036-1.037h-12.418c-.572 0-1.036.464-1.036 1.037z"/></g><g><path d="m96.996 242.874h-57.72c-4.143 0-7.5-3.358-7.5-7.5s3.357-7.5 7.5-7.5h57.72c4.143 0 7.5 3.358 7.5 7.5s-3.357 7.5-7.5 7.5z" fill="#454045"/></g><g><path d="m126.996 267.054h-87.72c-4.143 0-7.5-3.357-7.5-7.5 0-4.142 3.357-7.5 7.5-7.5h87.72c4.143 0 7.5 3.358 7.5 7.5 0 4.143-3.357 7.5-7.5 7.5z" fill="#454045"/></g><path d="m369.551 137.744h-38.61v-19.305c0-10.662 8.643-19.305 19.305-19.305 10.662 0 19.305 8.643 19.305 19.305z" fill="#da4a54"/><path d="m350.245 99.134c-2.836 0-5.521.627-7.947 1.725 6.694 3.031 11.359 9.754 11.359 17.58v19.305h15.893v-19.305c.001-10.662-8.643-19.305-19.305-19.305z" fill="#d82e3d"/></g></svg>